<mxfile host="app.diagrams.net" modified="2020-07-02T06:09:31.337Z" agent="5.0 (Macintosh; Intel Mac OS X 10_15_2) AppleWebKit/537.36 (KHTML, like Gecko) Chrome/83.0.4103.61 Safari/537.36" etag="pDS-rgBc7KKBM8YQL7f1" version="13.3.5" type="github">
  <diagram id="5Ps8DPQP4dzoudTF8kvC" name="Page-1">
    <mxGraphModel dx="1876" dy="386" grid="1" gridSize="10" guides="1" tooltips="1" connect="1" arrows="1" fold="1" page="1" pageScale="1" pageWidth="850" pageHeight="1100" math="0" shadow="0">
      <root>
        <mxCell id="0" />
        <mxCell id="1" parent="0" />
        <mxCell id="fOBcQis6dA02SgnJ4kPp-112" value="" style="rounded=1;whiteSpace=wrap;html=1;" parent="1" vertex="1">
          <mxGeometry x="-10" y="210" width="850" height="350" as="geometry" />
        </mxCell>
        <mxCell id="fOBcQis6dA02SgnJ4kPp-39" value="&lt;b&gt;&lt;font style=&quot;font-size: 20px&quot;&gt;Prepaid - Assess&lt;/font&gt;&lt;/b&gt;" style="text;html=1;align=center;verticalAlign=middle;resizable=0;points=[];autosize=1;" parent="1" vertex="1">
          <mxGeometry x="35" y="170" width="180" height="20" as="geometry" />
        </mxCell>
        <mxCell id="fOBcQis6dA02SgnJ4kPp-42" value="&lt;b&gt;&lt;font style=&quot;font-size: 20px&quot;&gt;Prepaid - Accept&lt;/font&gt;&lt;/b&gt;" style="text;html=1;align=center;verticalAlign=middle;resizable=0;points=[];autosize=1;" parent="1" vertex="1">
          <mxGeometry x="-30" y="960" width="170" height="20" as="geometry" />
        </mxCell>
        <mxCell id="DvML0EZWMKIMX1QM7t6k-17" style="edgeStyle=orthogonalEdgeStyle;curved=1;rounded=0;orthogonalLoop=1;jettySize=auto;html=1;" edge="1" parent="1" source="fOBcQis6dA02SgnJ4kPp-1">
          <mxGeometry relative="1" as="geometry">
            <mxPoint x="450" y="78" as="targetPoint" />
          </mxGeometry>
        </mxCell>
        <mxCell id="fOBcQis6dA02SgnJ4kPp-1" value="Search lambda" style="shape=process;whiteSpace=wrap;html=1;backgroundOutline=1;fillColor=#dae8fc;strokeColor=#6c8ebf;" parent="1" vertex="1">
          <mxGeometry x="170" y="57.5" width="140" height="40" as="geometry" />
        </mxCell>
        <mxCell id="DvML0EZWMKIMX1QM7t6k-20" style="edgeStyle=orthogonalEdgeStyle;curved=1;rounded=0;orthogonalLoop=1;jettySize=auto;html=1;entryX=0.435;entryY=0;entryDx=0;entryDy=0;entryPerimeter=0;" edge="1" parent="1" source="DvML0EZWMKIMX1QM7t6k-11" target="fOBcQis6dA02SgnJ4kPp-112">
          <mxGeometry relative="1" as="geometry" />
        </mxCell>
        <mxCell id="DvML0EZWMKIMX1QM7t6k-11" value="Search Pagination Consumer" style="shape=process;whiteSpace=wrap;html=1;backgroundOutline=1;fillColor=#dae8fc;strokeColor=#6c8ebf;" vertex="1" parent="1">
          <mxGeometry x="370" y="120" width="140" height="40" as="geometry" />
        </mxCell>
        <mxCell id="fOBcQis6dA02SgnJ4kPp-2" value="Aged Dispute Validator Lambda" style="shape=process;whiteSpace=wrap;html=1;backgroundOutline=1;fillColor=#fff2cc;strokeColor=#d6b656;" parent="1" vertex="1">
          <mxGeometry x="245" y="330" width="140" height="40" as="geometry" />
        </mxCell>
        <mxCell id="fOBcQis6dA02SgnJ4kPp-4" value="Partial/Full Validator Lambda&amp;nbsp;" style="shape=process;whiteSpace=wrap;html=1;backgroundOutline=1;fillColor=#f8cecc;strokeColor=#b85450;" parent="1" vertex="1">
          <mxGeometry x="590" y="240" width="140" height="40" as="geometry" />
        </mxCell>
        <mxCell id="fOBcQis6dA02SgnJ4kPp-8" value="Transaction Lambda" style="shape=process;whiteSpace=wrap;html=1;backgroundOutline=1;fillColor=#d5e8d4;strokeColor=#82b366;" parent="1" vertex="1">
          <mxGeometry x="170" y="240" width="140" height="40" as="geometry" />
        </mxCell>
        <mxCell id="fOBcQis6dA02SgnJ4kPp-9" value="" style="edgeStyle=orthogonalEdgeStyle;rounded=0;orthogonalLoop=1;jettySize=auto;html=1;" parent="1" source="fOBcQis6dA02SgnJ4kPp-1" target="fOBcQis6dA02SgnJ4kPp-8" edge="1">
          <mxGeometry relative="1" as="geometry" />
        </mxCell>
        <mxCell id="fOBcQis6dA02SgnJ4kPp-23" value="" style="edgeStyle=entityRelationEdgeStyle;rounded=0;orthogonalLoop=1;jettySize=auto;html=1;" parent="1" source="fOBcQis6dA02SgnJ4kPp-12" target="fOBcQis6dA02SgnJ4kPp-2" edge="1">
          <mxGeometry relative="1" as="geometry" />
        </mxCell>
        <mxCell id="fOBcQis6dA02SgnJ4kPp-12" value="Full Refund Validator Lambda" style="shape=process;whiteSpace=wrap;html=1;backgroundOutline=1;fillColor=#fff2cc;strokeColor=#d6b656;" parent="1" vertex="1">
          <mxGeometry x="425" y="330" width="140" height="40" as="geometry" />
        </mxCell>
        <mxCell id="fOBcQis6dA02SgnJ4kPp-18" value="" style="edgeStyle=orthogonalEdgeStyle;rounded=0;orthogonalLoop=1;jettySize=auto;html=1;" parent="1" source="fOBcQis6dA02SgnJ4kPp-13" target="fOBcQis6dA02SgnJ4kPp-4" edge="1">
          <mxGeometry relative="1" as="geometry" />
        </mxCell>
        <mxCell id="fOBcQis6dA02SgnJ4kPp-13" value="PaymentMethod Validator Lambda" style="shape=process;whiteSpace=wrap;html=1;backgroundOutline=1;fillColor=#f8cecc;strokeColor=#b85450;" parent="1" vertex="1">
          <mxGeometry x="385" y="240" width="140" height="40" as="geometry" />
        </mxCell>
        <mxCell id="fOBcQis6dA02SgnJ4kPp-17" value="" style="edgeStyle=orthogonalEdgeStyle;rounded=0;orthogonalLoop=1;jettySize=auto;html=1;" parent="1" source="fOBcQis6dA02SgnJ4kPp-8" target="fOBcQis6dA02SgnJ4kPp-13" edge="1">
          <mxGeometry relative="1" as="geometry" />
        </mxCell>
        <mxCell id="fOBcQis6dA02SgnJ4kPp-22" value="" style="edgeStyle=entityRelationEdgeStyle;rounded=0;orthogonalLoop=1;jettySize=auto;html=1;" parent="1" source="fOBcQis6dA02SgnJ4kPp-14" target="fOBcQis6dA02SgnJ4kPp-12" edge="1">
          <mxGeometry relative="1" as="geometry" />
        </mxCell>
        <mxCell id="fOBcQis6dA02SgnJ4kPp-14" value="Duplicate Validator Lambda" style="shape=process;whiteSpace=wrap;html=1;backgroundOutline=1;fillColor=#fff2cc;strokeColor=#d6b656;" parent="1" vertex="1">
          <mxGeometry x="610" y="330" width="140" height="40" as="geometry" />
        </mxCell>
        <mxCell id="fOBcQis6dA02SgnJ4kPp-21" style="edgeStyle=orthogonalEdgeStyle;rounded=0;orthogonalLoop=1;jettySize=auto;html=1;entryX=1;entryY=0.5;entryDx=0;entryDy=0;curved=1;exitX=1;exitY=0.5;exitDx=0;exitDy=0;" parent="1" source="fOBcQis6dA02SgnJ4kPp-4" target="fOBcQis6dA02SgnJ4kPp-14" edge="1">
          <mxGeometry relative="1" as="geometry">
            <Array as="points">
              <mxPoint x="835" y="253" />
              <mxPoint x="835" y="343" />
            </Array>
          </mxGeometry>
        </mxCell>
        <mxCell id="fOBcQis6dA02SgnJ4kPp-15" value="Usage Lambda" style="shape=process;whiteSpace=wrap;html=1;backgroundOutline=1;fillColor=#d5e8d4;strokeColor=#82b366;" parent="1" vertex="1">
          <mxGeometry x="55" y="330" width="140" height="40" as="geometry" />
        </mxCell>
        <mxCell id="fOBcQis6dA02SgnJ4kPp-24" value="" style="edgeStyle=entityRelationEdgeStyle;rounded=0;orthogonalLoop=1;jettySize=auto;html=1;" parent="1" source="fOBcQis6dA02SgnJ4kPp-2" target="fOBcQis6dA02SgnJ4kPp-15" edge="1">
          <mxGeometry relative="1" as="geometry" />
        </mxCell>
        <mxCell id="fOBcQis6dA02SgnJ4kPp-31" style="edgeStyle=orthogonalEdgeStyle;curved=1;rounded=0;orthogonalLoop=1;jettySize=auto;html=1;entryX=0.657;entryY=0;entryDx=0;entryDy=0;entryPerimeter=0;" parent="1" source="fOBcQis6dA02SgnJ4kPp-16" edge="1">
          <mxGeometry relative="1" as="geometry">
            <mxPoint x="136.98000000000002" y="490" as="targetPoint" />
          </mxGeometry>
        </mxCell>
        <mxCell id="fOBcQis6dA02SgnJ4kPp-16" value="Reason Validator" style="shape=process;whiteSpace=wrap;html=1;backgroundOutline=1;fillColor=#e1d5e7;strokeColor=#9673a6;" parent="1" vertex="1">
          <mxGeometry x="335" y="420" width="140" height="40" as="geometry" />
        </mxCell>
        <mxCell id="fOBcQis6dA02SgnJ4kPp-30" style="edgeStyle=orthogonalEdgeStyle;rounded=0;orthogonalLoop=1;jettySize=auto;html=1;entryX=0.5;entryY=0;entryDx=0;entryDy=0;curved=1;" parent="1" source="fOBcQis6dA02SgnJ4kPp-15" target="fOBcQis6dA02SgnJ4kPp-16" edge="1">
          <mxGeometry relative="1" as="geometry">
            <Array as="points">
              <mxPoint x="125" y="390" />
              <mxPoint x="405" y="390" />
            </Array>
          </mxGeometry>
        </mxCell>
        <mxCell id="fOBcQis6dA02SgnJ4kPp-26" value="CNR Dispute Lambda" style="shape=process;whiteSpace=wrap;html=1;backgroundOutline=1;fillColor=#fff2cc;strokeColor=#d6b656;" parent="1" vertex="1">
          <mxGeometry x="215" y="490" width="140" height="40" as="geometry" />
        </mxCell>
        <mxCell id="fOBcQis6dA02SgnJ4kPp-32" style="edgeStyle=orthogonalEdgeStyle;curved=1;rounded=0;orthogonalLoop=1;jettySize=auto;html=1;exitX=0.25;exitY=1;exitDx=0;exitDy=0;entryX=0.564;entryY=0.025;entryDx=0;entryDy=0;entryPerimeter=0;" parent="1" source="fOBcQis6dA02SgnJ4kPp-16" target="fOBcQis6dA02SgnJ4kPp-26" edge="1">
          <mxGeometry relative="1" as="geometry" />
        </mxCell>
        <mxCell id="fOBcQis6dA02SgnJ4kPp-27" value="PND Dispute Lambda" style="shape=process;whiteSpace=wrap;html=1;backgroundOutline=1;fillColor=#fff2cc;strokeColor=#d6b656;" parent="1" vertex="1">
          <mxGeometry x="380" y="490" width="140" height="40" as="geometry" />
        </mxCell>
        <mxCell id="fOBcQis6dA02SgnJ4kPp-33" style="edgeStyle=orthogonalEdgeStyle;curved=1;rounded=0;orthogonalLoop=1;jettySize=auto;html=1;exitX=0.75;exitY=1;exitDx=0;exitDy=0;entryX=0.5;entryY=0;entryDx=0;entryDy=0;" parent="1" source="fOBcQis6dA02SgnJ4kPp-16" target="fOBcQis6dA02SgnJ4kPp-27" edge="1">
          <mxGeometry relative="1" as="geometry" />
        </mxCell>
        <mxCell id="fOBcQis6dA02SgnJ4kPp-28" value="Duplicate Dispute Lambda" style="shape=process;whiteSpace=wrap;html=1;backgroundOutline=1;fillColor=#fff2cc;strokeColor=#d6b656;" parent="1" vertex="1">
          <mxGeometry x="555" y="490" width="140" height="40" as="geometry" />
        </mxCell>
        <mxCell id="fOBcQis6dA02SgnJ4kPp-34" style="edgeStyle=orthogonalEdgeStyle;curved=1;rounded=0;orthogonalLoop=1;jettySize=auto;html=1;entryX=0.5;entryY=0;entryDx=0;entryDy=0;" parent="1" source="fOBcQis6dA02SgnJ4kPp-16" target="fOBcQis6dA02SgnJ4kPp-28" edge="1">
          <mxGeometry relative="1" as="geometry" />
        </mxCell>
        <mxCell id="fOBcQis6dA02SgnJ4kPp-25" value="Fraud Dispute Lambda" style="shape=process;whiteSpace=wrap;html=1;backgroundOutline=1;fillColor=#fff2cc;strokeColor=#d6b656;" parent="1" vertex="1">
          <mxGeometry x="50" y="490" width="140" height="40" as="geometry" />
        </mxCell>
        <mxCell id="fOBcQis6dA02SgnJ4kPp-113" value="&lt;b&gt;Assess Stepfunction&lt;/b&gt;" style="text;html=1;align=center;verticalAlign=middle;resizable=0;points=[];autosize=1;" parent="1" vertex="1">
          <mxGeometry x="50" y="210" width="130" height="20" as="geometry" />
        </mxCell>
        <mxCell id="fOBcQis6dA02SgnJ4kPp-41" value="&lt;b&gt;&lt;font style=&quot;font-size: 20px&quot;&gt;Prepaid - Reject&lt;/font&gt;&lt;/b&gt;" style="text;html=1;align=center;verticalAlign=middle;resizable=0;points=[];autosize=1;" parent="1" vertex="1">
          <mxGeometry x="-30" y="620" width="170" height="20" as="geometry" />
        </mxCell>
        <mxCell id="fOBcQis6dA02SgnJ4kPp-115" value="" style="rounded=1;whiteSpace=wrap;html=1;" parent="1" vertex="1">
          <mxGeometry x="-40" y="650" width="910" height="270" as="geometry" />
        </mxCell>
        <mxCell id="DvML0EZWMKIMX1QM7t6k-4" style="edgeStyle=orthogonalEdgeStyle;curved=1;rounded=0;orthogonalLoop=1;jettySize=auto;html=1;" edge="1" parent="1" source="fOBcQis6dA02SgnJ4kPp-96" target="fOBcQis6dA02SgnJ4kPp-100">
          <mxGeometry relative="1" as="geometry" />
        </mxCell>
        <mxCell id="fOBcQis6dA02SgnJ4kPp-96" value="Fraud Evidence" style="shape=process;whiteSpace=wrap;html=1;backgroundOutline=1;fillColor=#d5e8d4;strokeColor=#82b366;" parent="1" vertex="1">
          <mxGeometry x="260.005" y="750" width="134.75" height="44" as="geometry" />
        </mxCell>
        <mxCell id="DvML0EZWMKIMX1QM7t6k-5" style="edgeStyle=orthogonalEdgeStyle;curved=1;rounded=0;orthogonalLoop=1;jettySize=auto;html=1;entryX=0.616;entryY=-0.023;entryDx=0;entryDy=0;entryPerimeter=0;" edge="1" parent="1" source="fOBcQis6dA02SgnJ4kPp-97" target="fOBcQis6dA02SgnJ4kPp-100">
          <mxGeometry relative="1" as="geometry">
            <mxPoint x="320" y="820" as="targetPoint" />
            <Array as="points">
              <mxPoint x="477" y="820" />
              <mxPoint x="328" y="820" />
            </Array>
          </mxGeometry>
        </mxCell>
        <mxCell id="fOBcQis6dA02SgnJ4kPp-97" value="CNR Evidence" style="shape=process;whiteSpace=wrap;html=1;backgroundOutline=1;fillColor=#d5e8d4;strokeColor=#82b366;" parent="1" vertex="1">
          <mxGeometry x="409.995" y="750" width="134.75" height="44" as="geometry" />
        </mxCell>
        <mxCell id="DvML0EZWMKIMX1QM7t6k-6" style="edgeStyle=orthogonalEdgeStyle;curved=1;rounded=0;orthogonalLoop=1;jettySize=auto;html=1;entryX=0.668;entryY=0.023;entryDx=0;entryDy=0;entryPerimeter=0;" edge="1" parent="1" source="fOBcQis6dA02SgnJ4kPp-98" target="fOBcQis6dA02SgnJ4kPp-100">
          <mxGeometry relative="1" as="geometry">
            <mxPoint x="370" y="820" as="targetPoint" />
            <Array as="points">
              <mxPoint x="622" y="800" />
              <mxPoint x="370" y="800" />
              <mxPoint x="370" y="820" />
              <mxPoint x="335" y="820" />
            </Array>
          </mxGeometry>
        </mxCell>
        <mxCell id="fOBcQis6dA02SgnJ4kPp-98" value="PND Evidence" style="shape=process;whiteSpace=wrap;html=1;backgroundOutline=1;fillColor=#d5e8d4;strokeColor=#82b366;" parent="1" vertex="1">
          <mxGeometry x="555.0025" y="750" width="134.75" height="44" as="geometry" />
        </mxCell>
        <mxCell id="DvML0EZWMKIMX1QM7t6k-7" style="edgeStyle=orthogonalEdgeStyle;curved=1;rounded=0;orthogonalLoop=1;jettySize=auto;html=1;entryX=0.549;entryY=-0.091;entryDx=0;entryDy=0;entryPerimeter=0;" edge="1" parent="1" source="fOBcQis6dA02SgnJ4kPp-99" target="fOBcQis6dA02SgnJ4kPp-100">
          <mxGeometry relative="1" as="geometry">
            <Array as="points">
              <mxPoint x="773" y="820" />
              <mxPoint x="319" y="820" />
            </Array>
          </mxGeometry>
        </mxCell>
        <mxCell id="fOBcQis6dA02SgnJ4kPp-99" value="Duplicate Evidence" style="shape=process;whiteSpace=wrap;html=1;backgroundOutline=1;fillColor=#d5e8d4;strokeColor=#82b366;" parent="1" vertex="1">
          <mxGeometry x="705.245" y="750" width="134.75" height="44" as="geometry" />
        </mxCell>
        <mxCell id="DvML0EZWMKIMX1QM7t6k-8" style="edgeStyle=orthogonalEdgeStyle;curved=1;rounded=0;orthogonalLoop=1;jettySize=auto;html=1;" edge="1" parent="1" source="fOBcQis6dA02SgnJ4kPp-100" target="DvML0EZWMKIMX1QM7t6k-1">
          <mxGeometry relative="1" as="geometry" />
        </mxCell>
        <mxCell id="fOBcQis6dA02SgnJ4kPp-100" value="Evidence Update" style="shape=process;whiteSpace=wrap;html=1;backgroundOutline=1;fillColor=#d5e8d4;strokeColor=#82b366;" parent="1" vertex="1">
          <mxGeometry x="217.625" y="860" width="134.75" height="44" as="geometry" />
        </mxCell>
        <mxCell id="fOBcQis6dA02SgnJ4kPp-116" value="&lt;b&gt;&amp;nbsp;Reject Stepfunction&lt;/b&gt;" style="text;html=1;align=center;verticalAlign=middle;resizable=0;points=[];autosize=1;" parent="1" vertex="1">
          <mxGeometry x="-0.375" y="662" width="130" height="20" as="geometry" />
        </mxCell>
        <mxCell id="fOBcQis6dA02SgnJ4kPp-120" style="edgeStyle=orthogonalEdgeStyle;curved=1;rounded=0;orthogonalLoop=1;jettySize=auto;html=1;entryX=0.5;entryY=0;entryDx=0;entryDy=0;" parent="1" source="fOBcQis6dA02SgnJ4kPp-119" target="fOBcQis6dA02SgnJ4kPp-96" edge="1">
          <mxGeometry relative="1" as="geometry" />
        </mxCell>
        <mxCell id="fOBcQis6dA02SgnJ4kPp-121" style="edgeStyle=orthogonalEdgeStyle;curved=1;rounded=0;orthogonalLoop=1;jettySize=auto;html=1;entryX=0.5;entryY=0;entryDx=0;entryDy=0;" parent="1" source="fOBcQis6dA02SgnJ4kPp-119" target="fOBcQis6dA02SgnJ4kPp-97" edge="1">
          <mxGeometry relative="1" as="geometry" />
        </mxCell>
        <mxCell id="fOBcQis6dA02SgnJ4kPp-122" style="edgeStyle=orthogonalEdgeStyle;curved=1;rounded=0;orthogonalLoop=1;jettySize=auto;html=1;" parent="1" source="fOBcQis6dA02SgnJ4kPp-119" target="fOBcQis6dA02SgnJ4kPp-98" edge="1">
          <mxGeometry relative="1" as="geometry" />
        </mxCell>
        <mxCell id="fOBcQis6dA02SgnJ4kPp-123" style="edgeStyle=orthogonalEdgeStyle;curved=1;rounded=0;orthogonalLoop=1;jettySize=auto;html=1;entryX=0.558;entryY=0;entryDx=0;entryDy=0;entryPerimeter=0;" parent="1" source="fOBcQis6dA02SgnJ4kPp-119" target="fOBcQis6dA02SgnJ4kPp-99" edge="1">
          <mxGeometry relative="1" as="geometry" />
        </mxCell>
        <mxCell id="fOBcQis6dA02SgnJ4kPp-144" style="edgeStyle=orthogonalEdgeStyle;curved=1;rounded=0;orthogonalLoop=1;jettySize=auto;html=1;" parent="1" source="fOBcQis6dA02SgnJ4kPp-119" target="fOBcQis6dA02SgnJ4kPp-142" edge="1">
          <mxGeometry relative="1" as="geometry" />
        </mxCell>
        <mxCell id="fOBcQis6dA02SgnJ4kPp-145" style="edgeStyle=orthogonalEdgeStyle;curved=1;rounded=0;orthogonalLoop=1;jettySize=auto;html=1;" parent="1" source="fOBcQis6dA02SgnJ4kPp-119" target="fOBcQis6dA02SgnJ4kPp-141" edge="1">
          <mxGeometry relative="1" as="geometry" />
        </mxCell>
        <mxCell id="fOBcQis6dA02SgnJ4kPp-119" value="EvidenceType" style="shape=process;whiteSpace=wrap;html=1;backgroundOutline=1;fillColor=#e1d5e7;strokeColor=#9673a6;" parent="1" vertex="1">
          <mxGeometry x="334.995" y="656" width="134.75" height="44" as="geometry" />
        </mxCell>
        <mxCell id="fOBcQis6dA02SgnJ4kPp-124" value="" style="rounded=1;whiteSpace=wrap;html=1;" parent="1" vertex="1">
          <mxGeometry x="-10" y="1000" width="765" height="180" as="geometry" />
        </mxCell>
        <mxCell id="fOBcQis6dA02SgnJ4kPp-129" value="&amp;nbsp;Accept Dispute Update Lambda" style="shape=process;whiteSpace=wrap;html=1;backgroundOutline=1;fillColor=#d5e8d4;strokeColor=#82b366;" parent="1" vertex="1">
          <mxGeometry x="290.255" y="1110" width="134.75" height="44" as="geometry" />
        </mxCell>
        <mxCell id="fOBcQis6dA02SgnJ4kPp-134" value="&lt;b&gt;&amp;nbsp;Accept Stepfunction&lt;/b&gt;" style="text;html=1;align=center;verticalAlign=middle;resizable=0;points=[];autosize=1;" parent="1" vertex="1">
          <mxGeometry x="-10.375" y="1012" width="140" height="20" as="geometry" />
        </mxCell>
        <mxCell id="fOBcQis6dA02SgnJ4kPp-140" style="edgeStyle=orthogonalEdgeStyle;curved=1;rounded=0;orthogonalLoop=1;jettySize=auto;html=1;" parent="1" source="fOBcQis6dA02SgnJ4kPp-139" target="fOBcQis6dA02SgnJ4kPp-129" edge="1">
          <mxGeometry relative="1" as="geometry" />
        </mxCell>
        <mxCell id="fOBcQis6dA02SgnJ4kPp-139" value="Accept Lambda" style="shape=process;whiteSpace=wrap;html=1;backgroundOutline=1;fillColor=#d5e8d4;strokeColor=#82b366;" parent="1" vertex="1">
          <mxGeometry x="289.995" y="1012" width="134.75" height="44" as="geometry" />
        </mxCell>
        <mxCell id="DvML0EZWMKIMX1QM7t6k-3" style="edgeStyle=orthogonalEdgeStyle;curved=1;rounded=0;orthogonalLoop=1;jettySize=auto;html=1;" edge="1" parent="1" source="fOBcQis6dA02SgnJ4kPp-141" target="fOBcQis6dA02SgnJ4kPp-100">
          <mxGeometry relative="1" as="geometry" />
        </mxCell>
        <mxCell id="fOBcQis6dA02SgnJ4kPp-141" value="Aged Evidence" style="shape=process;whiteSpace=wrap;html=1;backgroundOutline=1;fillColor=#d5e8d4;strokeColor=#82b366;" parent="1" vertex="1">
          <mxGeometry x="119.99499999999999" y="750" width="134.75" height="44" as="geometry" />
        </mxCell>
        <mxCell id="DvML0EZWMKIMX1QM7t6k-2" style="edgeStyle=orthogonalEdgeStyle;curved=1;rounded=0;orthogonalLoop=1;jettySize=auto;html=1;entryX=0;entryY=0.5;entryDx=0;entryDy=0;" edge="1" parent="1" source="fOBcQis6dA02SgnJ4kPp-142" target="fOBcQis6dA02SgnJ4kPp-100">
          <mxGeometry relative="1" as="geometry">
            <Array as="points">
              <mxPoint x="60" y="852" />
            </Array>
          </mxGeometry>
        </mxCell>
        <mxCell id="fOBcQis6dA02SgnJ4kPp-142" value="Refund Evidence" style="shape=process;whiteSpace=wrap;html=1;backgroundOutline=1;fillColor=#d5e8d4;strokeColor=#82b366;" parent="1" vertex="1">
          <mxGeometry x="-20" y="750" width="124.75" height="44" as="geometry" />
        </mxCell>
        <mxCell id="DvML0EZWMKIMX1QM7t6k-10" value="" style="edgeStyle=orthogonalEdgeStyle;curved=1;rounded=0;orthogonalLoop=1;jettySize=auto;html=1;" edge="1" parent="1" source="DvML0EZWMKIMX1QM7t6k-1" target="DvML0EZWMKIMX1QM7t6k-9">
          <mxGeometry relative="1" as="geometry" />
        </mxCell>
        <mxCell id="DvML0EZWMKIMX1QM7t6k-1" value="Finalize Evidence" style="shape=process;whiteSpace=wrap;html=1;backgroundOutline=1;fillColor=#d5e8d4;strokeColor=#82b366;" vertex="1" parent="1">
          <mxGeometry x="430.255" y="860" width="134.75" height="44" as="geometry" />
        </mxCell>
        <mxCell id="DvML0EZWMKIMX1QM7t6k-9" value="Reject Dispute Database Update" style="shape=process;whiteSpace=wrap;html=1;backgroundOutline=1;fillColor=#d5e8d4;strokeColor=#82b366;" vertex="1" parent="1">
          <mxGeometry x="645.005" y="860" width="134.75" height="44" as="geometry" />
        </mxCell>
        <mxCell id="DvML0EZWMKIMX1QM7t6k-19" style="edgeStyle=orthogonalEdgeStyle;curved=1;rounded=0;orthogonalLoop=1;jettySize=auto;html=1;entryX=1;entryY=0.5;entryDx=0;entryDy=0;" edge="1" parent="1" source="DvML0EZWMKIMX1QM7t6k-13" target="DvML0EZWMKIMX1QM7t6k-11">
          <mxGeometry relative="1" as="geometry">
            <Array as="points">
              <mxPoint x="575" y="90" />
              <mxPoint x="575" y="160" />
            </Array>
          </mxGeometry>
        </mxCell>
        <mxCell id="DvML0EZWMKIMX1QM7t6k-13" value="Queue" style="aspect=fixed;pointerEvents=1;shadow=0;dashed=0;html=1;strokeColor=none;labelPosition=center;verticalLabelPosition=bottom;verticalAlign=top;align=center;fillColor=#00188D;shape=mxgraph.azure.queue_generic" vertex="1" parent="1">
          <mxGeometry x="460" y="70" width="50" height="15" as="geometry" />
        </mxCell>
        <mxCell id="DvML0EZWMKIMX1QM7t6k-23" value="&lt;font style=&quot;font-size: 20px;&quot;&gt;&lt;b style=&quot;font-size: 20px;&quot;&gt;Prepaid Dispute Component Technical Flow&amp;nbsp;&lt;/b&gt;&lt;/font&gt;" style="text;html=1;align=center;verticalAlign=middle;resizable=0;points=[];autosize=1;fontSize=20;" vertex="1" parent="1">
          <mxGeometry x="125" y="5" width="440" height="30" as="geometry" />
        </mxCell>
      </root>
    </mxGraphModel>
  </diagram>
</mxfile>
